<svg width="18" height="22" viewBox="0 0 18 22" fill="none" xmlns="http://www.w3.org/2000/svg">
<path d="M9 6C10.11 6 11 5.1 11 4C11 3.62 10.9 3.27 10.71 2.97L9 0L7.29 2.97C7.1 3.27 7 3.62 7 4C7 5.1 7.9 6 9 6ZM13.6 15.99L12.53 14.92L11.45 15.99C10.15 17.29 7.87 17.3 6.56 15.99L5.49 14.92L4.4 15.99C3.75 16.64 2.88 17 1.96 17C1.23 17 0.56 16.77 0 16.39V21C0 21.55 0.45 22 1 22H17C17.55 22 18 21.55 18 21V16.39C17.44 16.77 16.77 17 16.04 17C15.12 17 14.25 16.64 13.6 15.99ZM15 9H10V7H8V9H3C1.34 9 0 10.34 0 12V13.54C0 14.62 0.88 15.5 1.96 15.5C2.48 15.5 2.98 15.3 3.34 14.93L5.48 12.8L7.61 14.93C8.35 15.67 9.64 15.67 10.38 14.93L12.52 12.8L14.65 14.93C15.02 15.3 15.51 15.5 16.03 15.5C17.11 15.5 17.99 14.62 17.99 13.54V12C18 10.34 16.66 9 15 9Z" fill="#A303A0"/>
</svg>
