<svg version="1.1" id="Layer_1" xmlns="http://www.w3.org/2000/svg" xmlns:xlink="http://www.w3.org/1999/xlink" x="0px" y="0px"
	 width="100%" viewBox="0 0 496 496" enable-background="new 0 0 496 496" xml:space="preserve">
<path fill="#fff" opacity="1.000000" stroke="none" 
	d="
M1.000000,225.468658 
	C3.493611,217.045120 3.663865,208.668320 5.538835,200.579514 
	C26.659719,109.462059 80.907326,47.406403 168.461823,14.484478 
	C179.542252,10.318055 191.017105,7.577852 202.556717,5.047713 
	C207.075607,4.056912 210.407059,4.430132 212.660324,9.373729 
	C215.043762,14.602875 218.384308,19.395784 221.630753,24.931683 
	C136.170334,39.988239 74.809380,85.533585 40.834438,164.988220 
	C19.236576,215.497467 17.778927,267.836456 34.504124,320.143829 
	C66.364662,419.786438 155.888748,469.335785 217.755112,475.042786 
	C215.508789,470.942322 213.510712,467.177307 211.406708,463.472443 
	C189.198166,424.366577 166.891968,385.315704 144.860565,346.110352 
	C142.284012,341.525391 139.351517,339.922424 134.231262,340.083740 
	C122.911148,340.440369 111.572113,340.209259 100.240860,340.187317 
	C98.445572,340.183838 96.590004,340.495087 93.767601,339.083862 
	C107.015823,319.820953 120.103775,300.791046 134.098984,280.442047 
	C175.441040,353.208466 216.104218,424.779999 256.883698,496.675751 
	C238.645767,497.000000 220.291550,497.000000 201.177155,496.779358 
	C199.475449,496.231720 198.557007,495.791351 197.589050,495.594116 
	C171.432465,490.264587 146.831085,480.761963 124.026283,466.997162 
	C66.163353,432.071472 27.855272,382.076569 9.290867,316.979828 
	C5.266404,302.867920 3.598572,288.357117 1.000000,274.000000 
	C1.000000,257.979095 1.000000,241.958206 1.000000,225.468658 
z"/>
<path fill="#fff" opacity="1.000000" stroke="none" 
	d="
M299.333313,497.000000 
	C294.418365,490.328491 289.836761,483.657013 284.801666,476.325165 
	C362.028839,461.593323 419.255493,420.851959 454.705048,351.353424 
	C477.890656,305.898285 483.799438,257.454285 474.071167,207.627319 
	C452.553589,97.417336 360.067230,34.694469 281.425995,26.211897 
	C286.990997,35.927620 292.319550,45.282509 297.696838,54.609280 
	C317.160248,88.368004 336.745483,122.057320 356.001953,155.933578 
	C358.954132,161.127045 361.896729,163.694092 368.334290,163.286835 
	C379.452362,162.583527 390.647278,163.073105 401.809753,163.114502 
	C403.582886,163.121078 405.500763,162.675049 407.750061,164.770996 
	C394.741211,183.716202 381.674286,202.746002 368.736725,221.587357 
	C365.974213,220.604553 365.592255,218.814438 364.795410,217.434677 
	C324.485474,147.634766 284.201508,77.819817 243.940826,7.991440 
	C242.785583,5.987812 241.911499,3.822078 240.953156,1.365966 
	C251.687561,1.000000 262.375122,1.000000 273.892761,1.140017 
	C289.170380,3.395558 303.640350,5.359453 317.707031,9.503502 
	C395.458221,32.409061 450.373840,81.090309 482.566589,155.447952 
	C489.058807,170.443497 493.143463,186.186661 497.000000,202.000000 
	C497.000000,234.354233 497.000000,266.708466 496.869110,299.876282 
	C495.331116,306.149628 494.074158,311.653198 492.494507,317.062561 
	C468.228485,400.159698 415.192596,456.562805 334.478394,487.274933 
	C323.576477,491.423126 312.124878,493.640411 301.000000,497.000000 
	C300.555542,497.000000 300.111115,497.000000 299.333313,497.000000 
z"/>
<path fill="#fff" opacity="1.000000" stroke="none" 
	d="
M267.643860,189.999924 
	C267.642365,182.336700 267.791321,175.169067 267.580048,168.012070 
	C267.466461,164.163300 268.759766,162.666016 272.733002,162.750732 
	C282.557220,162.960220 292.395111,163.037842 302.214478,162.739441 
	C306.888062,162.597412 308.263306,164.310608 308.240265,168.799591 
	C308.095764,196.951950 308.154785,225.105362 308.150116,253.258423 
	C308.145721,279.745605 308.153320,306.232758 308.138763,332.719940 
	C308.135132,339.322632 308.105286,339.344299 301.450836,339.355774 
	C292.122040,339.371887 282.785217,339.121552 273.467712,339.443787 
	C268.775391,339.606110 267.557648,337.903595 267.569427,333.430878 
	C267.695129,285.787506 267.645691,238.143661 267.643860,189.999924 
z"/>
<path fill="#fff" opacity="1.000000" stroke="none" 
	d="
M215.069031,337.410614 
	C211.964111,331.956757 211.827057,326.009705 210.407623,320.401459 
	C203.395386,292.695923 186.242462,276.305511 157.759094,271.312927 
	C127.607231,266.027893 104.896965,242.808899 100.003441,212.584396 
	C97.177589,195.130722 102.318375,179.312256 112.383560,164.996704 
	C112.641304,164.630127 113.189613,164.467834 113.891182,164.030075 
	C116.364944,167.234390 116.640617,171.105606 117.291924,174.742645 
	C120.222107,191.105530 126.632164,205.582397 139.435150,216.707275 
	C147.553452,223.761490 156.911514,228.153748 167.569351,229.733704 
	C198.660339,234.342743 222.596176,256.660889 228.786865,287.560486 
	C232.388947,305.539551 227.245010,321.792755 217.025177,336.636627 
	C216.695496,337.115479 215.932770,337.296143 215.069031,337.410614 
z"/>
<path fill="#fff" opacity="1.000000" stroke="none" 
	d="
M212.999878,161.763336 
	C220.448776,161.762634 227.397720,161.762634 235.962128,161.762634 
	C225.363144,180.211670 215.448914,197.468781 204.790970,216.020462 
	C194.219513,197.715607 184.336578,180.602936 174.453659,163.490280 
	C174.648849,162.914856 174.844040,162.339447 175.039230,161.764023 
	C187.526138,161.764023 200.013031,161.764023 212.999878,161.763336 
z"/>
<path fill="#fff" opacity="1.000000" stroke="none" 
	d="
M326.176514,256.886230 
	C323.209351,255.068542 320.163971,254.016220 317.382324,250.846481 
	C328.458099,244.449677 339.210510,238.239609 350.874298,231.503189 
	C350.874298,245.129959 350.874298,257.402252 350.874298,270.496490 
	C341.834564,266.644379 334.495880,261.229645 326.176514,256.886230 
z"/>
</svg>